<svg width="24" height="24" viewBox="0 0 24 24" fill="none" xmlns="http://www.w3.org/2000/svg">
<rect width="24" height="24" fill="white"/>
<mask id="path-1-inside-1_7453_73308" fill="white">
<path fill-rule="evenodd" clip-rule="evenodd" d="M11.9999 5.80078C10.4081 5.80078 9.1176 7.09125 9.1176 8.68313V12.7426C8.35536 13.4899 7.88245 14.5313 7.88245 15.6831C7.88245 17.9572 9.72598 19.8007 12.0001 19.8007C14.2742 19.8007 16.1177 17.9572 16.1177 15.6831C16.1177 14.5311 15.6447 13.4897 14.8823 12.7423V8.68313C14.8823 7.09125 13.5918 5.80078 11.9999 5.80078Z"/>
</mask>
<path d="M9.1176 12.7426L10.1677 13.8137L10.6176 13.3727V12.7426H9.1176ZM14.8823 12.7423H13.3823V13.3725L13.8323 13.8135L14.8823 12.7423ZM10.6176 8.68313C10.6176 7.91968 11.2365 7.30078 11.9999 7.30078V4.30078C9.57964 4.30078 7.6176 6.26283 7.6176 8.68313H10.6176ZM10.6176 12.7426V8.68313H7.6176V12.7426H10.6176ZM9.38245 15.6831C9.38245 14.9505 9.68137 14.2905 10.1677 13.8137L8.06748 11.6715C7.02934 12.6893 6.38245 14.112 6.38245 15.6831H9.38245ZM12.0001 18.3007C10.5544 18.3007 9.38245 17.1288 9.38245 15.6831H6.38245C6.38245 18.7856 8.89755 21.3007 12.0001 21.3007V18.3007ZM14.6177 15.6831C14.6177 17.1288 13.4458 18.3007 12.0001 18.3007V21.3007C15.1026 21.3007 17.6177 18.7856 17.6177 15.6831H14.6177ZM13.8323 13.8135C14.3187 14.2904 14.6177 14.9505 14.6177 15.6831H17.6177C17.6177 14.1118 16.9707 12.689 15.9323 11.6711L13.8323 13.8135ZM13.3823 8.68313V12.7423H16.3823V8.68313H13.3823ZM11.9999 7.30078C12.7634 7.30078 13.3823 7.91968 13.3823 8.68313H16.3823C16.3823 6.26283 14.4203 4.30078 11.9999 4.30078V7.30078Z" fill="black" mask="url(#path-1-inside-1_7453_73308)"/>
<path d="M13.6469 15.6822C13.6469 16.5919 12.9095 17.3293 11.9998 17.3293C11.0902 17.3293 10.3528 16.5919 10.3528 15.6822C10.3528 14.7726 11.0902 14.0352 11.9998 14.0352C12.9095 14.0352 13.6469 14.7726 13.6469 15.6822Z" fill="black"/>
<path d="M12 10.3301V14.8595" stroke="black" stroke-width="1.2" stroke-linecap="round"/>
<path d="M21 3L20.2265 3.77346C19.5228 4.47724 18.4086 4.55643 17.6123 3.95925L16.3877 3.04075C15.5914 2.44357 14.4772 2.52276 13.7735 3.22654L13.4142 3.58579C12.6332 4.36684 11.3668 4.36683 10.5858 3.58579L10.2265 3.22654C9.52276 2.52276 8.40857 2.44357 7.61233 3.04075L6.38767 3.95925C5.59143 4.55643 4.47724 4.47724 3.77346 3.77346L3 3" stroke="black" stroke-width="1.5" stroke-linecap="round"/>
<line x1="3.75" y1="21.75" x2="20.25" y2="21.75" stroke="black" stroke-width="1.5" stroke-linecap="square"/>
</svg>
