<svg width="24" height="24" viewBox="0 0 24 24" fill="none" xmlns="http://www.w3.org/2000/svg">
<path d="M7.25 9.80078C7.25 7.17743 9.37665 5.05078 12 5.05078C14.6234 5.05078 16.75 7.17743 16.75 9.80078V22.0008C16.75 22.1389 16.6381 22.2508 16.5 22.2508H7.5C7.36193 22.2508 7.25 22.1389 7.25 22.0008V9.80078Z" stroke="black" stroke-width="1.5"/>
<path d="M7.59961 10.9004H16.3996" stroke="black" stroke-width="1.5"/>
<path d="M7.59961 15.3008H16.3996" stroke="black" stroke-width="1.5"/>
<mask id="mask0_7453_73322" style="mask-type:alpha" maskUnits="userSpaceOnUse" x="8" y="1" width="8" height="5">
<path d="M13.1012 5.95V4.3V2.65H10.9012V5.95H8.70117V1H15.3012V5.95H13.1012Z" fill="black"/>
</mask>
<g mask="url(#mask0_7453_73322)">
<path d="M10.002 2C10.002 1.86193 10.1139 1.75 10.252 1.75H13.752C13.89 1.75 14.002 1.86193 14.002 2V5.2H10.002V2Z" stroke="black" stroke-width="1.5"/>
</g>
<path d="M6.5 3.19922H9.8" stroke="black" stroke-width="1.5"/>
<path d="M6.5 1V5.4" stroke="black" stroke-width="1.5"/>
<path d="M14.1992 3.19922H16.3992" stroke="black" stroke-width="1.5"/>
</svg>
