<svg width="24" height="24" viewBox="0 0 24 24" fill="none" xmlns="http://www.w3.org/2000/svg">
<path d="M20.25 14C20.25 18.5564 16.5564 22.25 12 22.25C7.44365 22.25 3.75 18.5564 3.75 14C3.75 9.44365 7.44365 5.75 12 5.75C16.5564 5.75 20.25 9.44365 20.25 14Z" stroke="black" stroke-width="1.5"/>
<path d="M9 2H15V3.5H9V2Z" fill="black"/>
<path d="M12 3V6" stroke="black" stroke-width="1.5"/>
<path d="M13.5 14C13.5 14.8284 12.8284 15.5 12 15.5C11.1716 15.5 10.5 14.8284 10.5 14C10.5 13.1716 11.1716 12.5 12 12.5C12.8284 12.5 13.5 13.1716 13.5 14Z" fill="black"/>
<path d="M12 9.5V13.5" stroke="black" stroke-width="1.5" stroke-linecap="round"/>
</svg>
