<svg width="96" height="20" viewBox="0 0 96 20" fill="none" xmlns="http://www.w3.org/2000/svg">
<path d="M2 3.2168H8.80504C13.2918 3.2168 14.8682 6.53372 14.8682 9.92554C14.8682 14.0521 12.6819 16.6735 7.98829 16.6735H2V3.2168ZM6.14794 13.2246H7.76717C10.3494 13.2246 10.7274 11.131 10.7274 9.86847C10.7274 9.01962 10.4635 6.65855 7.46757 6.65855H6.14794V13.2246Z" fill="#07084D"/>
<path d="M19.9546 3.21875H15.8066V16.6755H19.9546V3.21875Z" fill="#07084D"/>
<path d="M48.3264 3.18945H56.2264C58.5803 3.18945 60.6169 4.49126 60.6169 7.03423C60.6169 8.43233 59.9749 9.8875 58.6017 10.4082C59.7323 10.8433 60.4278 12.0881 60.5812 13.7644C60.6347 14.4242 60.6525 16.0256 61.0306 16.6497H56.8862C56.693 15.9727 56.5734 15.2767 56.5296 14.574C56.419 13.2936 56.3049 11.9561 54.6642 11.9561H52.4601V16.6355H48.3264V3.18945ZM52.4743 9.07075H54.6428C55.4132 9.07075 56.4689 8.93879 56.4689 7.73328C56.4689 6.88443 55.9981 6.39581 54.4146 6.39581H52.4743V9.07075Z" fill="#07084D"/>
<path d="M79.7301 3.17578H75.5822V16.6325H79.7301V3.17578Z" fill="#07084D"/>
<path d="M81.136 3.18945H87.9375C92.4243 3.18945 94.0007 6.50637 94.0007 9.89819C94.0007 14.0283 91.8144 16.6462 87.1208 16.6462H81.1289L81.136 3.18945ZM85.2804 13.1973H86.9032C89.4854 13.1973 89.8599 11.1073 89.8599 9.8447C89.8599 8.99585 89.596 6.63477 86.6 6.63477H85.2804V13.1973Z" fill="#07084D"/>
<path d="M61.1191 9.9342C61.1191 8.60099 61.5145 7.29772 62.2552 6.18919C62.9959 5.08067 64.0487 4.21668 65.2804 3.70648C66.5121 3.19628 67.8675 3.06279 69.1751 3.32289C70.4827 3.58298 71.6838 4.22499 72.6265 5.16771C73.5692 6.11043 74.2112 7.31153 74.4713 8.61913C74.7314 9.92672 74.5979 11.2821 74.0877 12.5138C73.5775 13.7455 72.7135 14.7983 71.605 15.539C70.4965 16.2797 69.1932 16.675 67.86 16.675C66.0751 16.6657 64.366 15.9525 63.1038 14.6903C61.8417 13.4282 61.1285 11.7191 61.1191 9.9342ZM71.2304 9.9342C71.2304 9.2676 71.0327 8.61596 70.6624 8.0617C70.292 7.50744 69.7656 7.07544 69.1498 6.82034C68.5339 6.56524 67.8562 6.4985 67.2024 6.62855C66.5486 6.75859 65.9481 7.07959 65.4767 7.55096C65.0054 8.02232 64.6844 8.62287 64.5543 9.27666C64.4243 9.93046 64.491 10.6081 64.7461 11.224C65.0012 11.8399 65.4332 12.3663 65.9875 12.7366C66.5417 13.107 67.1934 13.3046 67.86 13.3046C68.7513 13.2963 69.6037 12.9385 70.234 12.3082C70.8642 11.6779 71.222 10.8255 71.2304 9.9342Z" fill="#07084D"/>
<path d="M47.0495 6.62467H47.1636H47.3847V3.17578H47.1636H47.0495H36.0251V16.6361H47.3704V13.1872H40.1695V11.5073H46.5216V8.30453H40.1695V6.62467H47.0495Z" fill="#07084D"/>
<path fill-rule="evenodd" clip-rule="evenodd" d="M33.1301 3.17578H30.5586L31.8426 5.4263L33.1301 7.67681L34.4141 5.4263L35.698 3.17578H33.1301Z" fill="#2CA7E1"/>
<path fill-rule="evenodd" clip-rule="evenodd" d="M31.841 5.4263L30.5571 3.17578H27.9856H25.4141L26.7016 5.4263L27.9856 7.67681L29.2695 9.92732L30.5571 12.1778L31.841 9.92732L33.1286 7.67681L31.841 5.4263Z" fill="#2D1F87"/>
<path fill-rule="evenodd" clip-rule="evenodd" d="M29.2701 9.92732L27.9861 7.67681L26.7022 5.4263L25.4146 3.17578H22.8431H20.2716L21.5556 5.4263L22.8431 7.67681L24.1271 9.92732L25.4146 12.1778L26.7022 14.4248L27.9861 16.6753L29.2701 14.4248L30.5576 12.1778L29.2701 9.92732Z" fill="#07084D"/>
</svg>
